<svg width="141" height="44" viewBox="0 0 141 44" fill="none" xmlns="http://www.w3.org/2000/svg">
<path d="M52.9176 10.8477H70.2672V12.8164L57.6637 32.873H66.8922L67.2438 32.3633L67.9293 28.0215H70.4781V35H52.2672V33.0137L64.8707 12.9395H56.7321L56.0465 13.3613L55.4664 17.2109H52.9176V10.8477ZM73.934 10.8477H83.8305V12.6055L81.7387 12.7812L81.352 13.3262L87.3285 29.7441L93.1293 13.3262L92.725 12.7812L90.5629 12.6055V10.8477H98.4555V12.6055L96.1176 13.0801L88.1196 35H84.4809L76.3071 13.0449L73.934 12.6055V10.8477ZM101.314 35V33.2422L103.704 33.0488L104.302 32.4863V13.291L103.704 12.7812L101.314 12.6055V10.8477H112.089V12.6055L109.681 12.7812L109.101 13.291V32.4863L109.681 33.0488L112.089 33.2422V35H101.314ZM116.283 10.8477H137.043V17.2109H134.564L133.949 13.3613L133.422 12.9043H129.098V32.4863L129.713 33.0488L132.051 33.2422V35H121.275V33.2422L123.631 33.0488L124.229 32.4863V12.9043H119.922L119.377 13.3613L118.762 17.2109H116.283V10.8477Z" fill="white"/>
<rect x="4.63757" y="10.5" width="26.9286" height="6" fill="#9AB3AD" stroke="#CBD7D4"/>
<rect x="4.63757" y="28.5" width="26.9286" height="6" fill="#9AB3AD" stroke="#CBD7D4"/>
<rect x="4.63757" y="19.5" width="18.6534" height="6" fill="#9AB3AD" stroke="#CBD7D4"/>
<rect x="1.53442" y="6.5" width="33.1349" height="32" stroke="#CBD7D4"/>
</svg>
