<svg width="56" height="56" viewBox="0 0 56 56" fill="none" xmlns="http://www.w3.org/2000/svg">
<path d="M32.6051 52.4209C32.0447 52.1961 31.4077 52.4685 31.1829 53.0292C30.9951 53.4977 30.5189 53.8125 29.9981 53.8125H26.0024C25.4815 53.8125 25.0053 53.4977 24.8175 53.0292C24.5927 52.4685 23.9561 52.1967 23.3953 52.4209C22.8347 52.6458 22.5623 53.2824 22.7871 53.8431C23.3124 55.1534 24.5744 55.9999 26.0024 55.9999H29.9981C31.4261 55.9999 32.688 55.1534 33.2132 53.8431C33.4381 53.2824 33.1658 52.6458 32.6051 52.4209Z" fill="#707C87"/>
<path d="M45.7678 46.7865C45.4708 45.2548 44.5271 43.9287 43.1782 43.1456C43.4235 42.9452 43.6536 42.7236 43.8636 42.4796C44.8995 41.2762 45.3582 39.6853 45.1219 38.1152C44.7381 35.5642 43.6523 33.1805 41.982 31.222C40.7314 29.7556 39.1943 28.5739 37.4739 27.7435C39.5793 25.4976 40.8708 22.48 40.8708 19.166C40.8707 13.431 37.0046 8.58189 31.7418 7.08794C32.4586 6.23208 32.8498 5.16283 32.8498 4.03298C32.8499 1.80917 31.0406 0 28.8169 0C28.8168 0 28.8167 0 28.8166 0C27.9189 0 27.0782 0.291922 26.4494 0.821844C25.7544 1.40744 25.3717 2.23048 25.3716 3.13928C25.3716 3.74325 25.8613 4.23303 26.4653 4.23303C27.0693 4.23303 27.5591 3.74336 27.5591 3.13928C27.5591 2.87908 27.6599 2.66219 27.859 2.49441C28.0939 2.29644 28.434 2.18739 28.8167 2.18739H28.8168C29.8344 2.18739 30.6624 3.01514 30.6624 4.03277C30.6624 4.72205 30.394 5.36999 29.9066 5.85736C29.4192 6.34463 28.7714 6.61303 28.0823 6.61303C28.0822 6.61303 28.0822 6.61303 28.0821 6.61303C28.0553 6.61303 28.0291 6.61511 28.0028 6.61708C21.2264 6.78508 15.7654 12.3498 15.7653 19.1659C15.7653 22.4798 17.0568 25.4975 19.1621 27.7434C17.4419 28.5738 15.9047 29.7554 14.6541 31.2219C12.9839 33.1804 11.8981 35.564 11.5142 38.115C11.278 39.6852 11.7366 41.2761 12.7725 42.4795C12.9825 42.7235 13.2126 42.9452 13.4579 43.1455C12.109 43.9286 11.1652 45.2547 10.8682 46.7864C10.5704 48.322 10.9526 49.9093 11.9165 51.1412L14.2588 54.1343C15.2051 55.3435 16.6426 55.9938 18.1007 55.9938C18.9284 55.9938 19.7629 55.7842 20.5178 55.3483C22.6026 54.1447 23.496 51.5534 22.596 49.3208L21.1751 45.7959C21.0801 45.5604 20.9679 45.3345 20.8427 45.1175H28.8649C29.469 45.1175 29.9587 44.6277 29.9587 44.0238C29.9587 43.4198 29.469 42.93 28.8649 42.93H18.7635V40.6243C18.7635 40.3273 19.005 40.0858 19.3019 40.0858H37.3343C37.6311 40.0858 37.8727 40.3273 37.8727 40.6243V43.0813C36.7875 43.6762 35.9308 44.6304 35.4609 45.7959L34.04 49.3207C33.1399 51.5534 34.0333 54.1447 36.1181 55.3483C36.8731 55.7842 37.7073 55.9938 38.5353 55.9938C39.9933 55.9938 41.431 55.3434 42.3773 54.1343L44.7195 51.1412C45.6836 49.9093 46.0657 48.3221 45.7678 46.7865ZM17.9527 19.166C17.9528 13.4506 22.6028 8.80075 28.318 8.80064C34.0333 8.80075 38.6833 13.4506 38.6834 19.166C38.6834 24.8814 34.0335 29.5313 28.318 29.5314C22.6026 29.5313 17.9527 24.8814 17.9527 19.166ZM19.1465 46.6138L20.5674 50.1388C21.0623 51.3668 20.5708 52.792 19.4242 53.4541C18.2777 54.1161 16.7976 53.8292 15.9815 52.7864L13.6393 49.7933C13.0658 49.0606 12.8385 48.1165 13.0157 47.203C13.1929 46.2895 13.7567 45.4987 14.5626 45.0334C15.3684 44.5681 16.3351 44.4755 17.2148 44.7786C18.0945 45.0819 18.7986 45.7509 19.1465 46.6138ZM37.3415 35.7109C36.7374 35.7109 36.2477 36.2007 36.2477 36.8047V37.8984H20.3956V36.8047C20.3956 36.2007 19.9059 35.7109 19.3018 35.7109C18.6977 35.7109 18.2081 36.2007 18.2081 36.8047V38.1282C17.2481 38.5505 16.5759 39.5102 16.5759 40.6244V42.1689C15.7476 42.0861 14.979 41.6899 14.4303 41.0525C13.8104 40.3323 13.536 39.3803 13.6773 38.4406C14.3035 34.2786 17.0786 30.8397 20.9744 29.34C23.0407 30.8356 25.578 31.7188 28.318 31.7188C31.0581 31.7188 33.5954 30.8356 35.6617 29.34C39.5575 30.8397 42.3326 34.2786 42.9588 38.4406C43.1001 39.3803 42.8256 40.3323 42.2057 41.0525C41.6571 41.6899 40.8884 42.0861 40.0601 42.1689V40.6244C40.0601 39.513 39.3913 38.5555 38.4352 38.1315V36.8047C38.4352 36.2007 37.9456 35.7109 37.3415 35.7109ZM42.9968 49.7932L40.6547 52.7862C39.8386 53.8289 38.3587 54.1159 37.212 53.454C36.0653 52.7919 35.5739 51.3667 36.0689 50.1385L37.4898 46.6135C37.8377 45.7506 38.5418 45.0816 39.4215 44.7783C39.7622 44.661 40.1159 44.6029 40.4683 44.6029C41.0258 44.6029 41.58 44.7483 42.0737 45.0333C42.8796 45.4986 43.4433 46.2894 43.6206 47.2029C43.7976 48.1164 43.5703 49.0605 42.9968 49.7932Z" fill="#707C87"/>
<path d="M33.6647 43.2502C33.4613 43.0467 33.1791 42.9297 32.8914 42.9297C32.6038 42.9297 32.3216 43.0466 32.1181 43.2502C31.9147 43.4537 31.7977 43.7358 31.7977 44.0234C31.7977 44.3122 31.9147 44.5933 32.1181 44.7966C32.3216 45.0011 32.6038 45.1172 32.8914 45.1172C33.1791 45.1172 33.4613 45.0011 33.6647 44.7966C33.8681 44.5933 33.9852 44.3111 33.9852 44.0234C33.9852 43.7358 33.8681 43.4536 33.6647 43.2502Z" fill="#707C87"/>
<path d="M31.0155 22.9011C30.5463 22.5207 29.8576 22.593 29.4772 23.0621C29.1137 23.5106 28.5753 23.7677 28.0001 23.7677C27.4249 23.7677 26.8863 23.5105 26.523 23.0621C26.1427 22.5928 25.4539 22.5209 24.9846 22.9011C24.5153 23.2814 24.4432 23.9702 24.8236 24.4395C25.6043 25.4028 26.7622 25.9551 28.0001 25.9551C29.238 25.9551 30.3959 25.4026 31.1765 24.4395C31.5569 23.9702 31.4849 23.2814 31.0155 22.9011Z" fill="#707C87"/>
<path d="M25.2363 18.3925C24.2441 17.4004 22.6297 17.4004 21.6374 18.3925C21.2103 18.8197 21.2102 19.5121 21.6374 19.9393C22.0645 20.3665 22.7571 20.3665 23.1842 19.9394C23.3234 19.8002 23.5501 19.8002 23.6895 19.9394C23.9031 20.1529 24.183 20.2598 24.4629 20.2598C24.7428 20.2598 25.0228 20.1529 25.2363 19.9394C25.6634 19.5123 25.6634 18.8198 25.2363 18.3925Z" fill="#707C87"/>
<path d="M34.3628 18.3924C33.3705 17.4004 31.756 17.4004 30.7639 18.3924C30.3368 18.8195 30.3368 19.5121 30.7639 19.9393C30.9774 20.1529 31.2574 20.2597 31.5373 20.2597C31.8172 20.2597 32.0972 20.1528 32.3107 19.9393C32.4499 19.8002 32.6766 19.8 32.816 19.9393C33.2431 20.3665 33.9356 20.3664 34.3628 19.9392C34.7899 19.5121 34.7899 18.8196 34.3628 18.3924Z" fill="#707C87"/>
</svg>
