<svg width="56" height="43" viewBox="0 0 56 43" fill="none" xmlns="http://www.w3.org/2000/svg">
<path d="M55.4101 35.3806C55.4044 35.3209 55.393 35.2625 55.3759 35.2067C55.2307 34.1209 54.6798 33.1836 53.8874 32.535C54.7908 31.7779 55.3664 30.642 55.3664 29.3734C55.3664 27.427 54.011 25.7948 52.1967 25.3639V12.3621L54.7388 11.4629C55.1179 11.329 55.3715 10.9704 55.3727 10.5681C55.374 10.1658 55.1223 9.80594 54.7445 9.66949L28.1064 0.0564814C27.8991 -0.0184021 27.6715 -0.0190376 27.463 0.0558459L0.630261 9.66886C0.251166 9.80467 -0.00114105 10.1651 0.000126827 10.5681C0.0013947 10.9711 0.256238 11.3296 0.636601 11.4635L10.3409 14.8701L11.6893 31.4587C11.7495 35.2206 19.7663 37.1886 27.6861 37.1886C35.6021 37.1886 43.6157 35.2225 43.6823 31.4638L45.1968 14.8371L50.2955 13.0348V25.3646C48.4805 25.7961 47.1252 27.4277 47.1252 29.374C47.1252 30.6426 47.7008 31.7785 48.6042 32.5356C47.8124 33.1836 47.2621 34.119 47.1157 35.2035C47.0992 35.2606 47.0872 35.3203 47.0808 35.3812L46.4957 41.2386C46.4684 41.5064 46.5565 41.773 46.7366 41.9722C46.9166 42.1715 47.1727 42.2857 47.4415 42.2857H55.0494C55.3182 42.2857 55.5743 42.1721 55.7544 41.9722C55.9344 41.773 56.0225 41.5064 55.9953 41.2386L55.4101 35.3806ZM27.7825 1.96347L51.5932 10.556L27.7825 18.9747L3.79868 10.556L27.7825 1.96347ZM41.7849 31.3292C41.7824 31.3578 41.7811 31.387 41.7811 31.4155C41.7811 32.9932 36.2906 35.2847 27.6861 35.2847C19.0817 35.2847 13.5905 32.9932 13.5905 31.4155C13.5905 31.3895 13.5892 31.3641 13.5873 31.3381L12.3055 15.5593L27.4699 20.8824C27.5714 20.9179 27.6779 20.9357 27.7844 20.9357C27.8915 20.9357 27.9986 20.9179 28.1013 20.8817L43.2246 15.5345L41.7849 31.3292ZM49.027 29.3734C49.027 28.1486 50.0223 27.1523 51.2464 27.1523C52.4699 27.1523 53.4652 28.1486 53.4652 29.3734C53.4652 30.5982 52.4699 31.5945 51.2464 31.5945C50.0223 31.5945 49.027 30.5982 49.027 29.3734ZM48.4926 40.3813L48.9566 35.7359C48.9719 35.6801 48.9833 35.6217 48.989 35.5614C49.0955 34.3855 50.0654 33.499 51.2464 33.499C52.4262 33.499 53.3967 34.3855 53.5026 35.5614C53.5083 35.6204 53.5184 35.6782 53.5349 35.7334L53.9996 40.3819L48.4926 40.3813Z" fill="#707C87"/>
</svg>
