<svg width="24" height="24" viewBox="0 0 24 24" fill="none" xmlns="http://www.w3.org/2000/svg">
<path fill-rule="evenodd" clip-rule="evenodd" d="M18.15 8.35962L17.1346 7.31539C17.0942 7.26923 17.0308 7.24615 16.9731 7.24615C16.9096 7.24615 16.8519 7.26923 16.8115 7.31539L9.77307 14.4058L7.21153 11.8442C7.16537 11.7981 7.10768 11.775 7.04999 11.775C6.9923 11.775 6.93461 11.7981 6.88845 11.8442L5.86153 12.8712C5.76922 12.9635 5.76922 13.1077 5.86153 13.2L9.0923 16.4308C9.29999 16.6385 9.55384 16.7596 9.7673 16.7596C10.0731 16.7596 10.3385 16.5346 10.4365 16.4423H10.4423L18.1558 8.68846C18.2365 8.59039 18.2365 8.44615 18.15 8.35962Z" fill="#4CA34C"/>
<path fill-rule="evenodd" clip-rule="evenodd" d="M0 12C0 5.37115 5.37115 0 12 0C18.6288 0 24 5.37115 24 12C24 18.6288 18.6288 24 12 24C5.37115 24 0 18.6288 0 12ZM19.3442 4.65577C17.3827 2.69423 14.775 1.61538 12 1.61538C9.225 1.61538 6.61731 2.69423 4.65577 4.65577C2.69423 6.61731 1.61538 9.225 1.61538 12C1.61538 14.775 2.69423 17.3827 4.65577 19.3442C6.61731 21.3058 9.225 22.3846 12 22.3846C14.775 22.3846 17.3827 21.3058 19.3442 19.3442C21.3058 17.3827 22.3846 14.775 22.3846 12C22.3846 9.225 21.3058 6.61731 19.3442 4.65577Z" fill="#4CA34C"/>
</svg>
