<svg width="56" height="56" viewBox="0 0 56 56" fill="none" xmlns="http://www.w3.org/2000/svg">
<path d="M46.5086 40.6452V43.3548H43.0404L32.4459 35.4335L46.2922 22.2564C48.8805 19.7942 50.3052 16.52 50.3052 13.0381C50.3052 5.84929 44.1585 0 36.6042 0C32.9443 0 29.5036 1.35574 26.9162 3.81884L26.5764 4.14219L26.2366 3.81884C23.6492 1.35574 20.2085 0 16.5486 0C8.99429 0 2.84758 5.84929 2.84758 13.0381C2.84758 16.52 4.27226 19.7942 6.8606 22.2573L22.8358 37.4604C22.814 37.6338 22.7798 37.8036 22.7798 37.9834C22.7798 39.3761 23.4356 40.675 24.5794 41.5466L25.6282 42.3441L23.4499 43.381L20.686 43.7098L15.9459 37.6934C15.1733 36.7134 13.9432 36.129 12.6552 36.129C10.3981 36.129 8.56243 37.8686 8.54534 40.0129L7.26873 38.9498C6.48568 38.295 5.47768 37.9355 4.43361 37.9355H4.30548C1.93165 37.9355 0.00012207 39.7726 0.00012207 42.0316C0.00012207 43.1254 0.448122 44.1551 1.26155 44.9283L6.81504 50.2139C8.24921 51.5796 10.0479 52.5479 12.0135 53.0148L19.4283 54.7788C20.3158 54.9902 21.2289 55.0968 22.142 55.0968H42.806L46.5086 54.3923V56H56.0001V40.6452H46.5086ZM23.5258 35.5627L8.2027 20.9801C5.97314 18.8585 4.74588 16.0377 4.74588 13.0381C4.74588 6.84465 10.0403 1.80645 16.5486 1.80645C19.7017 1.80645 22.6649 2.97432 24.8945 5.096L26.5764 6.69652L28.2583 5.096C30.4879 2.97432 33.4511 1.80645 36.6042 1.80645C43.1125 1.80645 48.4069 6.84465 48.4069 13.0381C48.4069 16.0377 47.1796 18.8585 44.9501 20.9801L30.934 34.3181C30.1139 33.7427 29.1144 33.4194 28.0941 33.4194H27.5759C25.8674 33.4194 24.3763 34.2801 23.5258 35.5627ZM10.4408 41.5484V40.0427C10.4408 38.8812 11.4346 37.9355 12.6552 37.9355C13.3481 37.9355 14.0106 38.2507 14.4272 38.7782L18.5171 43.9681L16.4195 44.2174C14.8525 44.4044 13.2598 43.9374 12.0743 42.9511L10.3905 41.5484H10.4408ZM42.618 53.2903H22.142C21.3836 53.2903 20.6252 53.2009 19.8887 53.0266L12.4739 51.2617C10.8413 50.8742 9.34927 50.0703 8.15714 48.9368L2.60365 43.6511C2.149 43.2184 1.89843 42.6431 1.89843 42.0316C1.89843 40.7698 2.97856 39.7419 4.30548 39.7419H4.43456C5.01829 39.7419 5.58114 39.9434 6.0187 40.3092L10.8252 44.3114C12.4169 45.6355 14.5525 46.2587 16.6559 46.0103L24.0089 45.1351L27.2304 43.6023C27.5626 43.9338 27.816 44.3303 27.9697 44.7693C28.2469 45.5605 28.1843 46.4059 27.7913 47.1529L27.6262 47.4681L29.3242 48.2765L29.4893 47.9613C30.1082 46.7835 30.2079 45.4476 29.7703 44.1994C29.4542 43.2961 28.8743 42.504 28.0922 41.9079L25.7658 40.1375C25.0739 39.6101 24.6781 38.8243 24.6781 37.9834C24.6781 36.4623 25.9775 35.2258 27.5749 35.2258H28.0931C28.7395 35.2258 29.3754 35.4345 29.8832 35.8147L42.3836 45.1613H46.5086V52.5497L42.618 53.2903ZM54.1018 54.1935H48.4069V42.4516H54.1018V54.1935Z" fill="#707C87"/>
<path d="M52.2041 44.2582H50.3058V46.0646H52.2041V44.2582Z" fill="#707C87"/>
<path d="M6.64368 13.038C6.64368 14.3297 6.91134 15.5797 7.44002 16.753L9.18456 16.0422C8.75839 15.0938 8.54198 14.0831 8.54198 13.038C8.54198 8.83714 12.1336 5.41934 16.5481 5.41934V3.61288C11.0867 3.61288 6.64368 7.84088 6.64368 13.038Z" fill="#707C87"/>
<path d="M8.33826 18.3138C8.69134 18.8087 9.09663 19.2757 9.54463 19.702L10.8867 18.4249C10.5232 18.0789 10.1948 17.7005 9.9091 17.2994L8.33826 18.3138Z" fill="#707C87"/>
</svg>
