<svg width="54" height="54" viewBox="0 0 54 54" fill="none" xmlns="http://www.w3.org/2000/svg">
<g clip-path="url(#clip0)">
<path d="M5.27356 47.6711C4.69101 47.6711 4.21887 48.1432 4.21887 48.7257V48.7266C4.21887 49.3087 4.69101 49.7808 5.27356 49.7808C5.85611 49.7808 6.32825 49.3083 6.32825 48.7257C6.32825 48.1432 5.85611 47.6711 5.27356 47.6711Z" fill="#707C87"/>
<path d="M52.9453 0H44.5078C43.9253 0 43.4532 0.472137 43.4532 1.05469V2.15552L42.0458 2.14687C42.0437 2.14687 42.0413 2.14687 42.0392 2.14687C41.46 2.14687 40.9882 2.61447 40.9845 3.19455C40.9808 3.7771 41.4501 4.25253 42.0326 4.25624L43.4532 4.26489V15.2073C40.6916 16.9467 38.1991 15.9451 35.5681 14.8855C33.8345 14.1872 32.0411 13.4654 30.2519 13.6899C29.6874 13.7608 28.1639 13.982 26.5514 14.216C25.0233 14.4377 23.4429 14.6672 22.8995 14.7355C22.6231 14.7702 22.3475 14.6931 22.1233 14.5188C21.8947 14.3405 21.7488 14.0846 21.7134 13.7979C21.6903 13.6112 21.629 13.1148 22.9506 12.5013C25.7484 11.204 28.73 10.0933 31.131 9.45428C31.6938 9.30432 32.0288 8.72672 31.8788 8.16353C31.7292 7.60075 31.1516 7.26622 30.5884 7.41577C28.0745 8.08484 24.9669 9.24129 22.0632 10.5881C21.053 11.0565 20.4321 11.6016 20.0663 12.1512L9.49224 15.0347C8.37987 15.3144 7.80927 14.8715 7.64571 14.3635C7.48504 13.8634 7.67908 13.2186 8.47463 12.9047C9.30231 12.5895 11.2778 11.7198 13.7777 10.6198C17.0909 9.16177 21.2137 7.34697 24.5013 6.01337C28.4082 4.42845 29.5989 4.1895 33.5988 4.20392H33.6021C34.183 4.20392 34.6548 3.73384 34.6568 3.15253C34.6585 2.56998 34.1876 2.09619 33.605 2.09454C29.3385 2.08012 27.8582 2.37552 23.7087 4.0589C20.3922 5.40404 16.2538 7.22543 12.9282 8.68881C10.5482 9.7365 8.49234 10.6412 7.71863 10.9354C7.71534 10.9366 7.71204 10.9379 7.70874 10.9391C5.73821 11.712 5.17544 13.5717 5.63769 15.0091C6.09293 16.4255 7.65848 17.6767 10.0196 17.0773C10.0258 17.0756 10.0315 17.0744 10.0377 17.0723L19.691 14.4402C19.8624 15.1298 20.257 15.7392 20.8276 16.1833C21.4971 16.7044 22.3265 16.9335 23.1624 16.8284C23.726 16.7576 25.2454 16.5368 26.8542 16.3036C28.3864 16.0811 29.9701 15.8512 30.5147 15.7828C31.761 15.6263 33.2276 16.2166 34.78 16.842C36.4251 17.5045 38.2992 18.2597 40.3274 18.2593C41.3343 18.2593 42.3795 18.0714 43.4532 17.5952V17.9297C43.4532 18.5122 43.9253 18.9844 44.5078 18.9844H52.9453C53.5279 18.9844 54 18.5122 54 17.9297V1.05469C54 0.472137 53.5279 0 52.9453 0ZM51.8906 16.875H45.5625V3.22462V3.2238C45.5625 3.2238 45.5625 3.22298 45.5625 3.22256V2.10938H51.8906V16.875Z" fill="#707C87"/>
<path d="M48.7267 6.32893C49.3092 6.32893 49.7814 5.8568 49.7814 5.27425V5.27342C49.7814 4.69128 49.3092 4.21915 48.7267 4.21915C48.1441 4.21915 47.672 4.6917 47.672 5.27425C47.672 5.8568 48.1441 6.32893 48.7267 6.32893Z" fill="#707C87"/>
<path d="M19.6173 34.3828C22.1201 34.3828 24.335 33.1295 25.6706 31.2188H29.5672C29.847 31.2188 30.1152 31.1075 30.3129 30.9098L32.1133 29.1094H33.3493L35.1496 30.9098C35.3474 31.1075 35.6156 31.2188 35.8953 31.2188H37.547C37.8267 31.2188 38.0949 31.1075 38.2927 30.9098L41.4568 27.7457C41.6545 27.5479 41.7657 27.2797 41.7657 27V23.8359C41.7657 23.2538 41.2936 22.7812 40.7111 22.7812H25.6711C24.335 20.8705 22.1205 19.6172 19.6173 19.6172C15.5465 19.6172 12.2345 22.9292 12.2345 27C12.2345 31.0708 15.5465 34.3828 19.6173 34.3828ZM39.6564 24.8906V26.5633L37.1103 29.1094H36.3325L34.5317 27.309C34.3339 27.1112 34.0657 27 33.786 27H31.6766C31.3969 27 31.1286 27.1112 30.9309 27.309L29.1305 29.1094H26.6915C26.8914 28.4407 27.0001 27.7329 27.0001 27C27.0001 26.2671 26.8914 25.5593 26.6915 24.8906H39.6564ZM19.6173 21.7266C22.5251 21.7266 24.8907 24.0922 24.8907 27C24.8907 29.9078 22.5251 32.2734 19.6173 32.2734C16.7095 32.2734 14.3439 29.9078 14.3439 27C14.3439 24.0922 16.7095 21.7266 19.6173 21.7266Z" fill="#707C87"/>
<path d="M17.5079 28.0547C18.0905 28.0547 18.5626 27.5821 18.5626 26.9996C18.5626 26.417 18.0905 25.9449 17.5079 25.9449C16.9254 25.9449 16.4532 26.417 16.4532 26.9996V27.0004C16.4532 27.5829 16.9254 28.0547 17.5079 28.0547Z" fill="#707C87"/>
<path d="M37.8206 4.22989H37.821C38.4035 4.22989 38.8752 3.75734 38.8752 3.1752C38.8752 2.59265 38.4027 2.12051 37.8206 2.12051C37.238 2.12051 36.7659 2.59265 36.7659 3.1752C36.7659 3.75734 37.238 4.22989 37.8206 4.22989Z" fill="#707C87"/>
<path d="M43.9806 36.9227C43.9744 36.9244 43.9686 36.9256 43.9625 36.9277L34.3092 39.5599C34.1378 38.8702 33.7431 38.2609 33.1725 37.8167C32.503 37.2956 31.6737 37.0665 30.8378 37.1716C30.2742 37.2424 28.7548 37.4633 27.146 37.6964C25.6138 37.9189 24.0301 38.1488 23.4855 38.2172C22.2396 38.3733 20.7725 37.7834 19.2202 37.158C16.7581 36.1667 13.7823 34.9687 10.547 36.4036V36.0707C10.547 35.4882 10.0749 35.0161 9.49231 35.0161H1.05481C0.472259 35.0161 0.00012207 35.4882 0.00012207 36.0707V52.9453C0.00012207 53.5279 0.472259 54 1.05481 54H9.49231C10.0749 54 10.547 53.5279 10.547 52.9453V51.8445L11.9543 51.8531H11.9609C12.5402 51.8531 13.0119 51.3855 13.0156 50.8051C13.0193 50.2229 12.5501 49.7475 11.9675 49.7438L10.547 49.7351V38.7927C13.3085 37.0533 15.8011 38.0549 18.432 39.1141C20.1661 39.8128 21.9599 40.5346 23.7483 40.3097C24.3131 40.2388 25.8363 40.018 27.4488 39.784C28.9768 39.5619 30.5572 39.3329 31.1006 39.2645C31.3771 39.2299 31.6527 39.3065 31.8768 39.4812C32.1059 39.6596 32.2513 39.9154 32.2867 40.2021C32.3098 40.3888 32.3716 40.8852 31.0495 41.4983C28.2517 42.796 25.2706 43.9067 22.8695 44.5457C22.3068 44.6957 21.9718 45.2733 22.1214 45.8361C22.2713 46.3993 22.8493 46.7334 23.4117 46.5842C25.9257 45.9152 29.0333 44.7587 31.9374 43.4119C32.9472 42.9435 33.568 42.3985 33.9343 41.8489L44.5079 38.9654C45.6199 38.6852 46.1909 39.1285 46.3545 39.6365C46.5151 40.1366 46.3211 40.7814 45.526 41.0953C44.6987 41.4105 42.7224 42.2802 40.222 43.3806C36.9092 44.8387 32.7865 46.653 29.4988 47.9866C25.5919 49.5716 24.3988 49.8113 20.4013 49.7961C20.4005 49.7961 20.3993 49.7961 20.398 49.7961C19.8171 49.7961 19.3454 50.2662 19.3433 50.8475C19.3417 51.43 19.8126 51.9038 20.3951 51.9055C20.4812 51.9059 20.5661 51.9059 20.6502 51.9059C24.7231 51.9059 26.226 51.5907 30.2915 49.9411C33.6076 48.596 37.7464 46.7746 41.0715 45.3112C43.452 44.2635 45.5078 43.3588 46.2811 43.0646C46.2844 43.0634 46.2877 43.0622 46.2914 43.0609C48.262 42.288 48.8247 40.4283 48.3625 38.9909C47.9072 37.5749 46.3417 36.3237 43.9806 36.9227ZM2.1095 51.8906V37.125H8.43762V50.7766V50.7779V51.8906H2.1095Z" fill="#707C87"/>
<path d="M16.1801 49.7701H16.1793C15.5967 49.7701 15.125 50.2427 15.125 50.8248C15.125 51.4074 15.5975 51.8795 16.1801 51.8795C16.7626 51.8795 17.2348 51.4074 17.2348 50.8248C17.2348 50.2427 16.7626 49.7701 16.1801 49.7701Z" fill="#707C87"/>
</g>
<defs>
<clipPath id="clip0">
<rect width="54" height="54" fill="white" transform="translate(0.00012207)"/>
</clipPath>
</defs>
</svg>
