<svg width="48" height="56" viewBox="0 0 48 56" fill="none" xmlns="http://www.w3.org/2000/svg">
<path d="M47.012 9.66995C39.3071 7.5588 31.5569 4.27154 24.5992 0.163644C24.2296 -0.0545583 23.771 -0.0545583 23.4016 0.163644C16.2432 4.38956 8.9118 7.49897 0.988146 9.66995C0.476272 9.81006 0.12146 10.2753 0.12146 10.8061V22.8424C0.12146 35.2371 5.83946 43.4415 10.6364 48.1414C15.8007 53.2017 21.8163 56 24.0004 56C26.1843 56 32.1999 53.2017 37.3641 48.1414C42.161 43.4416 47.8787 35.2372 47.8787 22.8424V10.806C47.8787 10.2753 47.5238 9.81006 47.012 9.66995ZM45.5227 22.8423C45.5227 34.4188 40.1895 42.0745 35.7152 46.4585C30.6368 51.4345 25.2071 53.6439 24.0004 53.6439C22.7936 53.6439 17.3636 51.4345 12.2851 46.4585C7.81095 42.0744 2.4775 34.4188 2.4775 22.8423V11.7003C10.0548 9.54887 17.1114 6.54643 24.0006 2.54298C30.7177 6.44023 38.1265 9.59197 45.5227 11.6998V22.8423Z" fill="#707C87"/>
<path d="M13.5589 11.5685C13.3205 10.9631 12.6365 10.6657 12.031 10.9042C9.92666 11.7334 7.76673 12.4966 5.61128 13.1728C5.12008 13.327 4.78583 13.782 4.78583 14.2967V18.8457C4.78583 19.4963 5.31334 20.0237 5.96379 20.0237C6.61425 20.0237 7.14176 19.4963 7.14176 18.8457V15.1576C9.0754 14.532 11.007 13.84 12.8947 13.0961C13.5001 12.8578 13.7974 12.1739 13.5589 11.5685Z" fill="#707C87"/>
<path d="M15.7967 11.7919C15.9547 11.7919 16.1152 11.7601 16.2691 11.6929L16.2907 11.6835C16.8867 11.4223 17.1551 10.7286 16.8939 10.1328C16.6325 9.53684 15.9348 9.26723 15.3395 9.52819L15.3205 9.5364C14.7242 9.79682 14.4549 10.49 14.7153 11.0861C14.9086 11.5287 15.3422 11.7919 15.7967 11.7919Z" fill="#707C87"/>
<path d="M38.0353 37.984C37.4909 37.6282 36.761 37.7812 36.4047 38.3258C35.434 39.8116 34.2952 41.2343 33.0195 42.5541C31.9703 43.6393 30.8335 44.6508 29.6405 45.5603C29.1233 45.9547 29.0238 46.6938 29.4181 47.2113C29.6501 47.5153 30.0008 47.6752 30.3556 47.6752C30.6048 47.6752 30.8558 47.5965 31.0691 47.4338C32.3559 46.4526 33.582 45.3618 34.7131 44.1917C36.0925 42.765 37.3251 41.225 38.3771 39.6145C38.7331 39.0698 38.5799 38.3398 38.0353 37.984Z" fill="#707C87"/>
<path d="M26.9048 47.4078L26.8373 47.4476C26.2743 47.7736 26.0819 48.4942 26.4079 49.0571C26.6263 49.4345 27.0217 49.6451 27.4284 49.6451C27.6286 49.6451 27.8318 49.5941 28.0174 49.4863L28.0954 49.4405C28.6568 49.1117 28.8454 48.3902 28.5166 47.8287C28.1876 47.2675 27.4659 47.0793 26.9048 47.4078Z" fill="#707C87"/>
<path d="M15.9707 25.5958C15.2474 24.8724 14.2855 24.4743 13.2624 24.4743C12.2393 24.4743 11.2772 24.8725 10.5536 25.5958C9.06033 27.0894 9.06033 29.5197 10.5536 31.0132L17.5094 37.9688C18.2328 38.692 19.1948 39.0902 20.218 39.0902C21.2412 39.0902 22.2031 38.692 22.9266 37.9686L37.4474 23.4478C38.9405 21.9538 38.9405 19.5238 37.4471 18.0308C36.7237 17.3074 35.7618 16.9092 34.7385 16.9092C33.7153 16.9092 32.7533 17.3075 32.0298 18.0308L20.2179 29.8427L15.9707 25.5958ZM33.6958 19.6968C33.9742 19.4184 34.3446 19.2652 34.7386 19.2652C35.1328 19.2652 35.5029 19.4184 35.7815 19.6968C36.3562 20.2715 36.3562 21.2071 35.7812 21.7821L21.2608 36.3027C20.9824 36.5811 20.6119 36.7343 20.218 36.7343C19.824 36.7343 19.4536 36.5811 19.1751 36.3027L12.2195 29.3473C11.6445 28.7724 11.6445 27.8368 12.2193 27.262C12.4978 26.9836 12.8682 26.8302 13.2623 26.8302C13.6564 26.8302 14.0266 26.9834 14.305 27.2618L19.3849 32.3418C19.6059 32.5626 19.9054 32.6868 20.2179 32.6868C20.5304 32.6868 20.8298 32.5627 21.0507 32.3418L33.6958 19.6968Z" fill="#707C87"/>
</svg>
