<svg width="57" height="57" viewBox="0 0 57 57" fill="none" xmlns="http://www.w3.org/2000/svg">
<g clip-path="url(#clip0)">
<path d="M36.7743 47.8065C35.2539 47.8065 34.0162 49.0441 34.0162 50.5645C34.0162 52.085 35.2539 53.3226 36.7743 53.3226C38.2947 53.3226 39.5324 52.085 39.5324 50.5645C39.5324 49.0441 38.2947 47.8065 36.7743 47.8065ZM36.7743 51.4839C36.2679 51.4839 35.8549 51.0718 35.8549 50.5645C35.8549 50.0573 36.2679 49.6452 36.7743 49.6452C37.2807 49.6452 37.6937 50.0573 37.6937 50.5645C37.6937 51.0718 37.2807 51.4839 36.7743 51.4839Z" fill="#707C87"/>
<path d="M14.7098 47.8065C13.1893 47.8065 11.9517 49.0441 11.9517 50.5645C11.9517 52.085 13.1893 53.3226 14.7098 53.3226C16.2302 53.3226 17.4679 52.085 17.4679 50.5645C17.4679 49.0441 16.2302 47.8065 14.7098 47.8065ZM14.7098 51.4839C14.2034 51.4839 13.7904 51.0718 13.7904 50.5645C13.7904 50.0573 14.2034 49.6452 14.7098 49.6452C15.2162 49.6452 15.6291 50.0573 15.6291 50.5645C15.6291 51.0718 15.2162 51.4839 14.7098 51.4839Z" fill="#707C87"/>
<path d="M21.1453 41.371H24.8227V43.2097H21.1453V41.371Z" fill="#707C87"/>
<path d="M28.5001 11.0323C26.472 11.0323 24.8227 13.0945 24.8227 15.629C24.8227 18.1635 26.472 20.2258 28.5001 20.2258C30.5283 20.2258 32.1775 18.1635 32.1775 15.629C32.1775 13.0945 30.5283 11.0323 28.5001 11.0323ZM28.5001 18.3871C27.5035 18.3871 26.6614 17.1239 26.6614 15.629C26.6614 14.1342 27.5035 12.871 28.5001 12.871C29.4967 12.871 30.3388 14.1342 30.3388 15.629C30.3388 17.1239 29.4967 18.3871 28.5001 18.3871Z" fill="#707C87"/>
<path d="M20.2259 12.871C20.8252 12.871 21.4128 13.3648 21.7585 14.158L23.4437 13.4227C22.8 11.948 21.5673 11.0323 20.2259 11.0323C18.1978 11.0323 16.5485 13.0945 16.5485 15.629C16.5485 18.1635 18.1978 20.2258 20.2259 20.2258C21.5673 20.2258 22.8009 19.31 23.4437 17.8354L21.7585 17.1001C21.4128 17.8933 20.8252 18.3871 20.2259 18.3871C19.2294 18.3871 18.3872 17.1239 18.3872 15.629C18.3872 14.1342 19.2294 12.871 20.2259 12.871Z" fill="#707C87"/>
<path d="M57.0001 23.9032C57.0001 20.773 54.7525 18.16 51.7857 17.5872C52.1946 16.3693 52.4033 15.0975 52.4033 13.7903C52.4033 7.20042 47.0416 1.83871 40.4517 1.83871C37.6084 1.83871 34.932 2.82046 32.7872 4.62146C31.1985 1.8643 28.2272 0 24.8227 0C20.6416 0 17.0733 2.76345 15.9793 6.70483C15.2588 6.52661 14.5257 6.43548 13.7904 6.43548C8.72097 6.43548 4.5969 10.5596 4.5969 15.629C4.5969 16.3239 4.68443 17.0081 4.83571 17.6747C2.05206 18.3934 0.00012207 20.9418 0.00012207 23.9032C0.00012207 27.4518 2.88702 30.3387 6.43561 30.3387H14.3161L12.3607 34.7398C12.2561 34.9759 12.0554 35.1581 11.8112 35.2398L5.56384 37.3223C4.43529 37.698 3.67754 38.7489 3.67754 39.9376V48.7258C3.67754 50.2462 4.91517 51.4839 6.43561 51.4839H8.34794C8.79639 54.597 11.4746 57 14.7098 57C17.945 57 20.6232 54.597 21.0717 51.4839H30.4125C30.8609 54.597 33.5391 57 36.7743 57C40.0096 57 42.6877 54.597 43.1362 51.4839H45.0485C46.2453 51.4839 47.2567 50.7127 47.6373 49.6452H53.3227V44.129H47.8066V36.6162C47.8066 35.8795 47.5197 35.1864 46.9985 34.6661L42.6711 30.3387H50.5646C54.1132 30.3387 57.0001 27.4518 57.0001 23.9032ZM5.51625 48.7258V47.8065H8.90413C8.63119 48.3784 8.44176 48.996 8.34794 49.6452H6.43561C5.92924 49.6452 5.51625 49.2331 5.51625 48.7258ZM14.7098 55.1613C12.1753 55.1613 10.113 53.099 10.113 50.5645C10.113 48.03 12.1753 45.9677 14.7098 45.9677C17.2443 45.9677 19.3066 48.03 19.3066 50.5645C19.3066 53.099 17.2443 55.1613 14.7098 55.1613ZM30.9686 47.8065C30.6957 48.3784 30.5063 48.996 30.4125 49.6452H21.0717C20.9778 48.996 20.7884 48.3784 20.5155 47.8065H30.9686ZM36.7743 55.1613C34.2398 55.1613 32.1775 53.099 32.1775 50.5645C32.1775 48.03 34.2398 45.9677 36.7743 45.9677C39.3088 45.9677 41.3711 48.03 41.3711 50.5645C41.3711 53.099 39.3088 55.1613 36.7743 55.1613ZM45.0485 49.6452H43.1362C43.0424 48.996 42.8529 48.3784 42.58 47.8065H45.9679V48.7258C45.9679 49.2331 45.5549 49.6452 45.0485 49.6452ZM51.484 45.9677V47.8065H47.8066V45.9677H51.484ZM45.9679 36.6162V45.9677H41.2692C40.1079 44.8325 38.5219 44.129 36.7743 44.129C35.0267 44.129 33.4399 44.8325 32.2794 45.9677H28.5001V39.5323H43.2098V36.3935L37.155 30.3387H18.7383L15.6292 36.5574V39.5323H26.6614V45.9677H19.2047C18.0434 44.8325 16.4574 44.129 14.7098 44.129C12.9622 44.129 11.3753 44.8325 10.2149 45.9677H5.51625V39.9376C5.51625 39.5412 5.76898 39.1911 6.14517 39.0654L12.3921 36.9829C13.1238 36.7383 13.7254 36.1942 14.0405 35.4872L16.9036 29.045C17.0504 28.7141 17.3803 28.5 17.7435 28.5H37.8517C38.0972 28.5 38.3289 28.5956 38.5026 28.7693L45.6994 35.9662C45.8696 36.1381 45.9679 36.3742 45.9679 36.6162ZM28.5001 32.1774H36.3936L41.3711 37.1549V37.6936H28.5001V32.1774ZM26.6614 37.6936H17.4679V36.991L19.8749 32.1774H26.6614V37.6936ZM39.8017 27.4693C39.2814 26.9481 38.5883 26.6613 37.8508 26.6613H17.7435C16.6545 26.6613 15.6651 27.3041 15.2229 28.2984L15.1336 28.5H6.43561C3.9011 28.5 1.83883 26.4377 1.83883 23.9032C1.83883 21.7409 3.37408 19.8995 5.42961 19.4344C5.81881 20.2882 6.33101 21.0873 6.9725 21.7961L8.33582 20.5625C7.11031 19.209 6.43561 17.4565 6.43561 15.629C6.43561 11.5736 9.73505 8.27419 13.7904 8.27419C14.6528 8.27419 15.5115 8.43041 16.3425 8.73926L17.3933 9.12936L17.5707 8.02236C18.1444 4.43966 21.1951 1.83871 24.8227 1.83871C28.8781 1.83871 32.1775 5.13815 32.1775 9.19355H34.0163C34.0163 8.21628 33.86 7.27583 33.5759 6.39149C35.4514 4.64346 37.8674 3.67742 40.4517 3.67742C46.0276 3.67742 50.5646 8.21449 50.5646 13.7903C50.5646 15.0809 50.3128 16.3275 49.8437 17.5108C46.6336 17.8704 44.1292 20.5988 44.1292 23.9032H45.9679C45.9679 21.3687 48.0301 19.3065 50.5646 19.3065C53.0991 19.3065 55.1614 21.3687 55.1614 23.9032C55.1614 26.4377 53.0991 28.5 50.5646 28.5H40.8324L39.8017 27.4693Z" fill="#707C87"/>
<path d="M39.5324 18.3871C39.5324 16.8667 38.2947 15.629 36.7743 15.629C35.2539 15.629 34.0162 16.8667 34.0162 18.3871V19.3065H35.8549V18.3871C35.8549 17.8807 36.2679 17.4677 36.7743 17.4677C37.2807 17.4677 37.6937 17.8807 37.6937 18.3871C37.6937 18.6748 37.5567 18.9496 37.326 19.1224L34.0162 21.6048V23.9032H39.5324V22.0645H36.4681L38.4299 20.5935C39.1203 20.075 39.5324 19.2503 39.5324 18.3871Z" fill="#707C87"/>
</g>
<defs>
<clipPath id="clip0">
<rect width="57" height="57" fill="white" transform="translate(0.00012207)"/>
</clipPath>
</defs>
</svg>
