<svg width="24" height="24" viewBox="0 0 24 24" fill="none" xmlns="http://www.w3.org/2000/svg">
<path fill-rule="evenodd" clip-rule="evenodd" d="M12.0058 17.9827C12.6519 17.9827 13.1885 17.4923 13.1885 16.8346C13.1885 16.1769 12.6519 15.6807 12.0058 15.6807C11.3481 15.6807 10.8116 16.1769 10.8116 16.8346C10.8116 17.4923 11.3481 17.9827 12.0058 17.9827ZM10.9039 14.775H13.1077L13.1077 6.46151H10.9039L10.9039 14.775Z" fill="#DE4D3B"/>
<path fill-rule="evenodd" clip-rule="evenodd" d="M24 12C24 18.6288 18.6288 24 12 24C5.37115 24 0 18.6288 0 12C0 5.37115 5.37115 0 12 0C18.6288 0 24 5.37115 24 12ZM4.65577 19.3442C6.61731 21.3058 9.225 22.3846 12 22.3846C14.775 22.3846 17.3827 21.3058 19.3442 19.3442C21.3058 17.3827 22.3846 14.775 22.3846 12C22.3846 9.225 21.3058 6.61731 19.3442 4.65577C17.3827 2.69423 14.775 1.61539 12 1.61539C9.225 1.61539 6.61731 2.69423 4.65577 4.65577C2.69423 6.61731 1.61539 9.225 1.61539 12C1.61539 14.775 2.69423 17.3827 4.65577 19.3442Z" fill="#DE4D3B"/>
</svg>
