<svg width="24" height="24" viewBox="0 0 24 24" fill="none" xmlns="http://www.w3.org/2000/svg">
<path fill-rule="evenodd" clip-rule="evenodd" d="M0 12C0 18.6274 5.37258 24 12 24C18.6274 24 24 18.6274 24 12C24 5.37258 18.6274 0 12 0C5.37258 0 0 5.37258 0 12ZM22.4 12C22.4 17.7438 17.7438 22.4 12 22.4C6.25624 22.4 1.6 17.7438 1.6 12C1.6 6.25624 6.25624 1.6 12 1.6C17.7438 1.6 22.4 6.25624 22.4 12Z" fill="#E3EAFF"/>
<path d="M12 22.4C17.7437 22.4 22.4 17.7438 22.4 12C22.4 6.25624 17.7437 1.60001 12 1.60001C6.25621 1.60001 1.59998 6.25624 1.59998 12C1.59998 17.7438 6.25621 22.4 12 22.4Z" fill="white"/>
</svg>
