<svg width="48" height="48" viewBox="0 0 48 48" fill="none" xmlns="http://www.w3.org/2000/svg">
<path d="M46.6624 0.0121C46.4046 0.0493454 46.1666 0.171563 45.9861 0.359385L0.363801 45.9817C0.251077 46.0889 0.160864 46.2175 0.0984413 46.36C0.0360188 46.5025 0.00264074 46.656 0.000259189 46.8115C-0.00212236 46.9671 0.0265406 47.1215 0.0845714 47.2659C0.142602 47.4102 0.228836 47.5415 0.338226 47.6521C0.447616 47.7627 0.577966 47.8504 0.721649 47.91C0.865333 47.9696 1.01946 48 1.17503 47.9993C1.33059 47.9987 1.48445 47.967 1.62762 47.9062C1.77079 47.8453 1.90039 47.7565 2.00884 47.645L47.6311 2.0227C47.8125 1.85231 47.9349 1.62851 47.9804 1.38383C48.0259 1.13914 47.9922 0.886317 47.8842 0.662103C47.7761 0.437889 47.5994 0.253969 47.3797 0.137074C47.16 0.0201785 46.9087 -0.0236005 46.6624 0.0121ZM10.5447 2.36998C6.03615 2.36998 2.35612 6.05001 2.35612 10.5586C2.35612 15.0672 6.03615 18.7472 10.5447 18.7472C15.0533 18.7472 18.7334 15.0672 18.7334 10.5586C18.7334 6.05001 15.0533 2.36998 10.5447 2.36998ZM10.5447 4.70959C13.7889 4.70959 16.3937 7.31443 16.3937 10.5586C16.3937 13.8028 13.7889 16.4076 10.5447 16.4076C7.30056 16.4076 4.69573 13.8028 4.69573 10.5586C4.69573 7.31443 7.30056 4.70959 10.5447 4.70959ZM37.4502 29.2754C32.9416 29.2754 29.2616 32.9555 29.2616 37.4641C29.2616 41.9727 32.9416 45.6527 37.4502 45.6527C41.9588 45.6527 45.6388 41.9727 45.6388 37.4641C45.6388 32.9555 41.9588 29.2754 37.4502 29.2754ZM37.4502 31.615C40.6944 31.615 43.2992 34.2198 43.2992 37.4641C43.2992 40.7082 40.6944 43.3131 37.4502 43.3131C34.206 43.3131 31.6012 40.7082 31.6012 37.4641C31.6012 34.2198 34.206 31.615 37.4502 31.615Z" fill="#707C87"/>
</svg>
